<svg width="24" height="16" viewBox="0 0 24 16" fill="none" xmlns="http://www.w3.org/2000/svg">
<path fill-rule="evenodd" clip-rule="evenodd" d="M9.873 6.8259C10.371 6.5754 10.7475 6.2964 11.0055 5.9949C11.4645 5.4519 11.691 4.7319 11.691 3.8394C11.691 2.9709 11.4645 2.2284 11.0115 1.6059C10.2555 0.591898 8.976 0.0728984 7.167 0.0458984H0V14.6754H6.6825C7.4355 14.6754 8.133 14.6109 8.778 14.4789C9.423 14.3454 9.981 14.1009 10.4535 13.7439C10.8735 13.4334 11.2245 13.0479 11.5035 12.5934C11.9445 11.9064 12.165 11.1279 12.165 10.2609C12.165 9.4209 11.9715 8.7054 11.5875 8.1174C11.199 7.5294 10.629 7.0989 9.873 6.8259ZM2.9565 2.5869H6.1845C6.894 2.5869 7.479 2.6634 7.938 2.8149C8.469 3.0354 8.7345 3.4839 8.7345 4.1679C8.7345 4.7814 8.532 5.2104 8.1315 5.4519C7.728 5.6934 7.2045 5.8149 6.5625 5.8149H2.9565V2.5869ZM6.558 12.1374C7.2015 12.1374 7.704 12.0519 8.061 11.8794C8.712 11.5584 9.036 10.9524 9.036 10.0524C9.036 9.2889 8.7225 8.7669 8.0925 8.4819C7.7385 8.3244 7.2435 8.2404 6.6075 8.2359H2.9565V12.1374H6.558ZM15.336 0.728398H21.6915V2.5494H15.336V0.728398ZM23.8995 7.9149C23.7675 7.0674 23.4765 6.3219 23.0235 5.6784C22.527 4.9494 21.897 4.4154 21.1305 4.0779C20.367 3.7389 19.5075 3.5694 18.5505 3.5709C16.944 3.5709 15.639 4.0734 14.6295 5.0709C13.623 6.0714 13.119 7.5099 13.119 9.3849C13.119 11.3844 13.6755 12.8289 14.7945 13.7154C15.909 14.6034 17.196 15.0459 18.657 15.0459C20.4255 15.0459 21.801 14.5194 22.7835 13.4694C23.412 12.8064 23.7675 12.1539 23.8455 11.5134H20.9175C20.748 11.8299 20.5515 12.0774 20.3265 12.2574C19.9185 12.5874 19.3875 12.7524 18.7365 12.7524C18.117 12.7524 17.592 12.6159 17.154 12.3444C16.431 11.9094 16.053 11.1474 16.005 10.0629H23.9955C24.0075 9.1284 23.9775 8.4099 23.8995 7.9149ZM16.077 8.1954C16.182 7.4919 16.437 6.9339 16.842 6.5214C17.247 6.1104 17.82 5.9034 18.5535 5.9019C19.23 5.9019 19.7955 6.0954 20.256 6.4839C20.7105 6.8754 20.967 7.4439 21.0195 8.1954H16.077Z" fill="white"/>
</svg>
