<svg width="24" height="24" viewBox="0 0 24 24" fill="none" xmlns="http://www.w3.org/2000/svg">
<path d="M12 0C18.615 0 24 5.383 24 12C24 18.615 18.615 24 12 24C5.383 24 0 18.615 0 12C0 5.383 5.383 0 12 0Z" fill="#C2185B"/>
<path d="M18.562 4.081V4.08C16.123 2.056 12.941 1.3 9.89799 1.93C11.146 3.699 12.28 5.54 13.277 7.449C15.165 6.569 16.941 5.434 18.562 4.081Z" fill="#EC407A"/>
<path d="M15.275 11.831V11.83C17.552 11.363 19.921 11.319 22.269 11.709C22.2 9.258 21.278 7.022 19.783 5.291C18.018 6.778 16.078 8.01 14.017 8.973C14.469 9.912 14.887 10.864 15.275 11.831Z" fill="#EC407A"/>
<path d="M11.678 8.097C10.647 6.142 9.47999 4.256 8.17699 2.456C5.08899 3.694 2.74899 6.382 1.98599 9.681C5.31499 9.823 8.60999 9.269 11.678 8.097Z" fill="#EC407A"/>
<path d="M13.605 12.257C13.247 11.376 12.86 10.508 12.446 9.65C9.086 10.959 5.546 11.591 1.745 11.386C1.588 14.196 2.498 16.681 4.138 18.626C6.608 15.559 9.929 13.361 13.605 12.257Z" fill="#EC407A"/>
<path d="M15.905 13.453V13.454C16.722 15.734 17.363 18.078 17.834 20.467C20.152 18.868 21.77 16.342 22.176 13.425C20.074 13.053 17.95 13.069 15.905 13.453H15.905Z" fill="#EC407A"/>
<path d="M5.354 19.845H5.355C8.4 22.428 12.63 23.014 16.262 21.352C15.791 18.791 15.105 16.285 14.22 13.851C10.765 14.861 7.643 16.935 5.354 19.845Z" fill="#EC407A"/>
</svg>
