<svg width="24" height="24" viewBox="0 0 24 24" fill="none" xmlns="http://www.w3.org/2000/svg">
<path fill-rule="evenodd" clip-rule="evenodd" d="M17.0001 3H7.0001C4.23867 3 2.0001 5.23858 2.0001 8V16C2.0001 18.7614 4.23867 21 7.0001 21H16.992L17.2088 20.9952C19.8688 20.8794 21.9902 18.6885 21.994 16.0014L21.9971 8.006L22.0001 7.99797C22.0001 5.23601 19.7608 2.99747 17.0001 3ZM17.001 5L17.1772 5.00494C18.693 5.09145 19.9071 6.30518 19.995 7.8217L19.9981 7.99949L19.994 15.9995C19.9917 17.6556 18.648 18.9985 16.9911 19H7.0001C5.34324 19 4.0001 17.6569 4.0001 16V8C4.0001 6.34315 5.34324 5 7.0001 5L17.001 5Z" fill="#391484"/>
<g opacity="0.5">
<path fill-rule="evenodd" clip-rule="evenodd" d="M7.29299 8.29289C7.65347 7.93241 8.2207 7.90468 8.61299 8.2097L8.7072 8.29289L9.87878 9.46447C11.0035 10.5892 12.799 10.6342 13.9774 9.59943L14.1214 9.46447L15.293 8.29289C15.6835 7.90237 16.3167 7.90237 16.7072 8.29289C17.0677 8.65338 17.0954 9.22061 16.7904 9.6129L16.7072 9.70711L15.5356 10.8787C13.6422 12.7721 10.6079 12.8295 8.64535 11.0508L8.46456 10.8787L7.29299 9.70711C6.90246 9.31658 6.90246 8.68342 7.29299 8.29289Z" fill="#391484"/>
</g>
</svg>
