<svg width="24" height="24" viewBox="0 0 24 24" fill="none" xmlns="http://www.w3.org/2000/svg">
<circle cx="11.9146" cy="11.9144" r="11.9146" fill="#007AB9"/>
<path fill-rule="evenodd" clip-rule="evenodd" d="M7.36057 5.09076C6.38634 5.09076 5.74896 5.73027 5.74896 6.57048C5.74896 7.39285 6.36787 8.05083 7.32319 8.05083H7.34167C8.33502 8.05083 8.95264 7.39285 8.95264 6.57048C8.93374 5.73027 8.33502 5.09076 7.36057 5.09076ZM19.0335 12.8731V17.7853H16.1856V13.2023C16.1856 12.0516 15.7744 11.2658 14.7432 11.2658C13.9563 11.2658 13.4889 11.7948 13.2824 12.3071C13.2074 12.4902 13.1881 12.7444 13.1881 13.0012V17.7851H10.34C10.34 17.7851 10.3782 10.0231 10.34 9.21961H13.1883V10.4334C13.1856 10.4379 13.1824 10.4423 13.1793 10.4467C13.1757 10.4517 13.1721 10.4566 13.1694 10.4615H13.1883V10.4334C13.5668 9.85104 14.2418 9.01848 15.7551 9.01848C17.6287 9.01848 19.0335 10.2427 19.0335 12.8731ZM8.76532 17.7853H5.91824V9.21961H8.76532V17.7853Z" fill="#F1F2F2"/>
</svg>
