<svg width="25" height="24" viewBox="0 0 25 24" fill="none" xmlns="http://www.w3.org/2000/svg">
<path fill-rule="evenodd" clip-rule="evenodd" d="M11.5 3C7.08172 3 3.5 6.58172 3.5 11C3.5 15.4183 7.08172 19 11.5 19C15.9183 19 19.5 15.4183 19.5 11C19.5 6.58172 15.9183 3 11.5 3ZM11.5 5C14.8137 5 17.5 7.68629 17.5 11C17.5 14.3137 14.8137 17 11.5 17C8.18629 17 5.5 14.3137 5.5 11C5.5 7.68629 8.18629 5 11.5 5Z" fill="white"/>
<g opacity="0.5">
<path fill-rule="evenodd" clip-rule="evenodd" d="M15.7926 15.2969C16.1529 14.9362 16.7201 14.9082 17.1125 15.2131L17.2068 15.2962L21.2068 19.2926C21.5975 19.6829 21.5978 20.3161 21.2074 20.7068C20.8471 21.0675 20.2799 21.0954 19.8875 20.7906L19.7932 20.7075L15.7932 16.7111C15.4025 16.3207 15.4022 15.6876 15.7926 15.2969Z" fill="#391484"/>
</g>
</svg>
