<svg width="16" height="16" viewBox="0 0 16 16" fill="none" xmlns="http://www.w3.org/2000/svg">
<path fill-rule="evenodd" clip-rule="evenodd" d="M5 0H11C13.761 0 16 2.239 16 5V11C16 13.761 13.761 16 11 16H5C2.239 16 0 13.761 0 11V5C0 2.239 2.239 0 5 0ZM11 14.5C12.93 14.5 14.5 12.93 14.5 11V5C14.5 3.07 12.93 1.5 11 1.5H5C3.07 1.5 1.5 3.07 1.5 5V11C1.5 12.93 3.07 14.5 5 14.5H11Z" fill="url(#paint0_linear_0_146)"/>
<path fill-rule="evenodd" clip-rule="evenodd" d="M4 8C4 5.791 5.791 4 8 4C10.209 4 12 5.791 12 8C12 10.209 10.209 12 8 12C5.791 12 4 10.209 4 8ZM5.5 8C5.5 9.378 6.622 10.5 8 10.5C9.378 10.5 10.5 9.378 10.5 8C10.5 6.621 9.378 5.5 8 5.5C6.622 5.5 5.5 6.621 5.5 8Z" fill="url(#paint1_linear_0_146)"/>
<circle cx="12.3" cy="3.69999" r="0.533" fill="url(#paint2_linear_0_146)"/>
<defs>
<linearGradient id="paint0_linear_0_146" x1="8.0001" y1="21.0708" x2="21.0708" y2="7.9999" gradientUnits="userSpaceOnUse">
<stop stop-color="#FFC107"/>
<stop offset="0.507" stop-color="#F44336"/>
<stop offset="0.99" stop-color="#9C27B0"/>
</linearGradient>
<linearGradient id="paint1_linear_0_146" x1="8" y1="13.6567" x2="13.6567" y2="8" gradientUnits="userSpaceOnUse">
<stop stop-color="#FFC107"/>
<stop offset="0.507" stop-color="#F44336"/>
<stop offset="0.99" stop-color="#9C27B0"/>
</linearGradient>
<linearGradient id="paint2_linear_0_146" x1="12.3001" y1="4.45379" x2="13.0538" y2="3.69999" gradientUnits="userSpaceOnUse">
<stop stop-color="#FFC107"/>
<stop offset="0.507" stop-color="#F44336"/>
<stop offset="0.99" stop-color="#9C27B0"/>
</linearGradient>
</defs>
</svg>
