<svg width="16" height="16" viewBox="0 0 16 16" fill="none" xmlns="http://www.w3.org/2000/svg">
<path d="M16 2.91181C15.405 3.1795 14.771 3.35693 14.11 3.44309C14.79 3.02668 15.309 2.37232 15.553 1.5836C14.919 1.97129 14.219 2.24514 13.473 2.39796C12.871 1.74052 12.013 1.33334 11.077 1.33334C9.261 1.33334 7.799 2.84514 7.799 4.69847C7.799 4.96514 7.821 5.22155 7.875 5.46565C5.148 5.32924 2.735 3.98873 1.114 1.94668C0.831 2.45027 0.665 3.02668 0.665 3.64719C0.665 4.81232 1.25 5.84514 2.122 6.44309C1.595 6.43283 1.078 6.27591 0.64 6.02873C0.64 6.03898 0.64 6.05232 0.64 6.06565C0.64 7.70052 1.777 9.05847 3.268 9.37129C3.001 9.44616 2.71 9.48206 2.408 9.48206C2.198 9.48206 1.986 9.46975 1.787 9.42463C2.212 10.7569 3.418 11.7364 4.852 11.7682C3.736 12.6636 2.319 13.2031 0.785 13.2031C0.516 13.2031 0.258 13.1908 0 13.1569C1.453 14.118 3.175 14.6667 5.032 14.6667C11.068 14.6667 14.368 9.53847 14.368 5.09334C14.368 4.94463 14.363 4.80104 14.356 4.65847C15.007 4.18463 15.554 3.59283 16 2.91181Z" fill="#03A9F4"/>
</svg>
