<svg width="32" height="32" viewBox="0 0 32 32" fill="none" xmlns="http://www.w3.org/2000/svg">
<path fill-rule="evenodd" clip-rule="evenodd" d="M12 0C5.37258 0 0 5.37258 0 12V20C0 26.6274 5.37258 32 12 32H20C26.6274 32 32 26.6274 32 20V12C32 5.37258 26.6274 0 20 0H12ZM18.8284 8.82843C17.2663 7.26633 14.7337 7.26633 13.1716 8.82842L8.82843 13.1716C7.26633 14.7337 7.26633 17.2663 8.82843 18.8284L13.1716 23.1716C14.7337 24.7337 17.2663 24.7337 18.8284 23.1716L23.1716 18.8284C24.7337 17.2663 24.7337 14.7337 23.1716 13.1716L18.8284 8.82843Z" fill="white"/>
</svg>
