<svg width="16" height="16" viewBox="0 0 16 16" fill="none" xmlns="http://www.w3.org/2000/svg">
<path fill-rule="evenodd" clip-rule="evenodd" d="M10.5098 0C10.6528 0.972 10.2578 1.924 9.73578 2.597C9.17778 3.32 8.21478 3.879 7.28278 3.85C7.11278 2.919 7.54878 1.961 8.07878 1.316C8.65978 0.605 9.65678 0.059 10.5098 0ZM10.8238 3.745C11.9108 3.745 13.0618 4.341 13.8808 5.368C11.1958 6.849 11.6308 10.707 14.3438 11.74C13.9708 12.572 13.7918 12.943 13.3108 13.68C12.6398 14.708 11.6948 15.989 10.5218 15.998C10.0396 16.0031 9.72327 15.8572 9.38219 15.6998C8.98687 15.5174 8.5583 15.3197 7.79978 15.324C7.04543 15.3277 6.61 15.523 6.20927 15.7027C5.85939 15.8596 5.53596 16.0047 5.04978 16C3.87778 15.99 2.98178 14.834 2.31078 13.806C0.43578 10.933 0.23778 7.56 1.39478 5.766C2.21778 4.492 3.51578 3.747 4.73478 3.747C5.38447 3.747 5.90808 3.93474 6.40707 4.11365C6.86121 4.27648 7.29496 4.432 7.78478 4.432C8.23802 4.432 8.61066 4.29002 9.01714 4.13515C9.50479 3.94935 10.0411 3.745 10.8238 3.745Z" fill="#12022F"/>
</svg>
