<svg width="16" height="16" viewBox="0 0 16 16" fill="none" xmlns="http://www.w3.org/2000/svg">
<path fill-rule="evenodd" clip-rule="evenodd" d="M8 0C3.58172 0 0 3.60361 0 8.04889C0 12.0663 2.92548 15.3962 6.75 16V10.3755H4.71875V8.04889H6.75V6.27562C6.75 4.25837 7.94434 3.1441 9.77172 3.1441C10.647 3.1441 11.5625 3.3013 11.5625 3.3013V5.28208H10.5537C9.55992 5.28208 9.25 5.90252 9.25 6.53905V8.04889H11.4688L11.1141 10.3755H9.25V16C13.0745 15.3962 16 12.0663 16 8.04889C16 3.60361 12.4183 0 8 0Z" fill="#1877F2"/>
<path fill-rule="evenodd" clip-rule="evenodd" d="M11.1141 10.3125L11.4688 8H9.25V6.49933C9.25 5.86667 9.55992 5.25 10.5537 5.25H11.5625V3.28125C11.5625 3.28125 10.647 3.125 9.77172 3.125C7.94434 3.125 6.75 4.2325 6.75 6.2375V8H4.71875V10.3125H6.75V15.9028C7.1573 15.9667 7.57475 16 8 16C8.42525 16 8.8427 15.9667 9.25 15.9028V10.3125H11.1141Z" fill="white"/>
</svg>
