<svg width="16" height="16" viewBox="0 0 16 16" fill="none" xmlns="http://www.w3.org/2000/svg">
<path d="M8.9618 7.66777L1.23689 15.3927C0.867609 15.0434 0.667999 14.5643 0.667999 14.0453V1.92897C0.667999 1.40001 0.87759 0.920944 1.25685 0.561646L8.9618 7.66777Z" fill="#2196F3"/>
<path d="M15.6388 7.98707C15.6388 8.6857 15.2595 9.30449 14.6308 9.65381L12.435 10.8714L9.71036 8.35635L8.96182 7.66769L11.8462 4.78333L14.6308 6.32032C15.2595 6.66964 15.6388 7.28843 15.6388 7.98707Z" fill="#FFC107"/>
<path d="M8.96182 7.66773L1.25687 0.561606C1.35667 0.461801 1.48642 0.371976 1.61616 0.292132C2.24494 -0.0871271 3.00346 -0.0971076 3.65219 0.262191L11.8462 4.78336L8.96182 7.66773Z" fill="#4CAF50"/>
<path d="M12.435 10.8715L3.65219 15.712C3.34279 15.8917 2.99348 15.9715 2.65414 15.9715C2.29484 15.9715 1.93554 15.8817 1.61617 15.6821C1.47644 15.6022 1.34669 15.5024 1.23691 15.3926L8.96182 7.66772L9.71036 8.35638L12.435 10.8715Z" fill="#F44336"/>
</svg>
