<svg width="16" height="16" viewBox="0 0 16 16" fill="none" xmlns="http://www.w3.org/2000/svg">
<path fill-rule="evenodd" clip-rule="evenodd" d="M7.99341 0C3.5858 0 0 3.5858 0 7.99333C0 12.4009 3.5858 15.9867 7.99341 15.9867C12.401 15.9867 15.9868 12.4009 15.9868 7.99333C15.9868 3.5858 12.401 0 7.99341 0ZM13.2024 3.76984C14.0998 4.87444 14.6522 6.26866 14.6982 7.78849C13.0359 7.44436 11.5307 7.48475 10.2019 7.74528C9.96133 7.18263 9.71226 6.64659 9.46088 6.13998C10.908 5.51658 12.1678 4.72034 13.2024 3.76984ZM12.3019 2.85467C11.275 3.79209 10.0848 4.48616 8.86614 4.99859C7.97168 3.36291 7.11589 2.13117 6.59457 1.43119C7.04599 1.33502 7.51375 1.28342 7.99341 1.28342C9.63251 1.28342 11.1354 1.87499 12.3019 2.85467ZM5.29831 1.85035C5.69198 2.36047 6.62965 3.63773 7.63688 5.45497C5.10545 6.2797 2.64916 6.41865 1.46883 6.43157C1.96081 4.37638 3.40004 2.68646 5.29831 1.85035ZM1.29044 7.71825C1.3031 7.71825 1.31534 7.71833 1.32826 7.71833C2.14383 7.71833 3.63807 7.66349 5.39722 7.34272C6.40086 7.1597 7.35256 6.91337 8.24556 6.60809C8.47803 7.0714 8.70913 7.56013 8.93322 8.07238C7.68282 8.47495 6.62836 9.0542 5.79311 9.62935C4.39247 10.5939 3.41125 11.664 2.87547 12.3256C1.88347 11.1558 1.28342 9.64372 1.28342 7.99333C1.28342 7.90109 1.28667 7.80963 1.29044 7.71825ZM3.8003 13.2262C4.26156 12.6454 5.20043 11.5883 6.55855 10.6607C7.4815 10.0303 8.43636 9.56192 9.41938 9.2545C9.98973 10.7328 10.4767 12.3663 10.767 14.1007C9.92094 14.4864 8.98233 14.7032 7.99341 14.7032C6.40779 14.7032 4.9499 14.1492 3.8003 13.2262ZM11.9477 13.4096C11.6485 11.8167 11.2023 10.319 10.6865 8.95016C11.9553 8.73608 13.2667 8.78024 14.6136 9.08278C14.3232 10.853 13.3381 12.3918 11.9477 13.4096Z" fill="white"/>
</svg>
